<svg width="118" height="107" viewBox="0 0 118 107" fill="none" xmlns="http://www.w3.org/2000/svg">
<path d="M8.01019 55.9568H8.50718C8.56565 55.9763 8.72156 55.9861 8.97493 55.9861C9.32574 58.2079 10.2417 59.9522 11.7229 61.219C13.2042 62.4858 14.8997 63.1192 16.8097 63.1192C18.3299 63.1192 19.09 62.8269 19.09 62.2422C19.09 61.9693 19.0413 61.7549 18.9438 61.599C18.4566 61.6965 17.8232 61.7452 17.0436 61.7452C15.1921 61.7452 13.6329 61.1605 12.3661 59.9911C11.0993 58.8218 10.4659 57.2626 10.4659 55.3137C10.4659 53.3647 11.07 51.8153 12.2784 50.6654C13.5062 49.496 15.1044 48.9114 17.0728 48.9114H17.599C17.755 48.9114 17.9693 48.9308 18.2422 48.9698C18.3007 48.8529 18.3299 48.7262 18.3299 48.5898C18.3299 47.9661 17.8134 47.6543 16.7805 47.6543C15.0654 47.6543 13.4867 48.1513 12.0445 49.1452C10.6218 50.1392 9.64731 51.6009 9.1211 53.5304C6.19767 53.5304 3.94663 52.8385 2.36798 51.4547C1.0232 50.2854 0.350811 48.7554 0.350811 46.865C0.350811 43.6882 1.79304 41.0668 4.67748 39.0009C7.58142 36.935 11.3526 35.9021 15.9912 35.9021C20.6491 35.9021 24.4886 37.0617 27.5095 39.381C30.5108 41.7002 32.0115 44.7016 32.0115 48.3851C32.0115 50.8213 31.1345 52.8287 29.3805 54.4074C28.5229 53.9981 27.7726 53.7935 27.1294 53.7935C26.4863 53.7935 26.1647 54.0566 26.1647 54.5828C26.1647 54.8167 26.2232 54.9823 26.3401 55.0798C27.8798 55.0798 29.283 55.645 30.5498 56.7754C32.1285 58.1786 32.9178 60.1763 32.9178 62.7684C32.9178 66.7053 31.2514 69.8041 27.9187 72.0649C24.8589 74.1308 20.961 75.1637 16.225 75.1637C11.5086 75.1637 7.6204 74.1016 4.56055 71.9772C1.52018 69.8528 0 67.0269 0 63.4993C0 61.3359 0.691878 59.5429 2.07563 58.1202C3.47888 56.6779 5.45707 55.9568 8.01019 55.9568Z" fill="#E17055"/>
<path d="M64.0453 62.5345C63.4606 62.1058 62.6615 61.3652 61.6481 60.3127C60.4397 59.1044 59.397 57.9058 58.52 56.7169C57.6625 55.528 56.8049 54.1443 55.9474 52.5656C55.0899 50.987 54.6124 50.0028 54.5149 49.613C53.9107 49.613 53.6087 49.9638 53.6087 50.6654C53.6087 51.1916 53.9205 52.0784 54.5442 53.3257C55.1678 54.5536 56.1131 56.0445 57.3799 57.7986C58.6662 59.5331 59.8258 60.8584 60.8588 61.7744C61.9307 62.7489 62.7103 63.2362 63.1975 63.2362C63.6847 63.2362 63.9673 63.0023 64.0453 62.5345ZM70.3891 70.1647C67.4267 73.4584 63.3632 75.1053 58.1984 75.1053C53.0337 75.1053 48.9799 73.4584 46.037 70.1647C42.9381 66.7345 41.3887 61.9498 41.3887 55.8106C41.3887 49.6714 42.9576 44.8283 46.0954 41.2812C49.2528 37.7341 53.2871 35.9606 58.1984 35.9606C63.1098 35.9606 67.1344 37.7341 70.2722 41.2812C73.4295 44.8283 75.0082 49.6714 75.0082 55.8106C75.0082 61.9304 73.4685 66.715 70.3891 70.1647Z" fill="#E17055"/>
<path d="M117.301 49.9638C117.301 53.1016 116.375 55.7132 114.524 57.7986C112.438 60.1373 109.388 61.7062 105.373 62.5053C105.373 63.2459 105.705 63.6162 106.367 63.6162C107.537 63.6162 108.969 63.2459 110.665 62.5053C112.36 61.7647 113.676 60.8877 114.611 59.8742C116.463 61.7257 117.389 64.1716 117.389 67.212C117.389 70.2329 116.521 72.6106 114.787 74.3452H88.505C87.0043 72.1039 86.254 69.6287 86.254 66.9197C86.254 64.1911 86.7802 61.9011 87.8326 60.0496C91.6721 59.309 95.151 57.9545 98.2693 55.9861C101.388 54.0176 102.947 51.9322 102.947 49.7299C102.947 49.1452 102.81 48.6677 102.537 48.2974C102.284 47.9271 101.924 47.742 101.456 47.742C100.501 47.742 100.023 48.2487 100.023 49.2622C100.023 50.2561 100.364 50.987 101.047 51.4547C100.092 52.8775 98.6201 54.1833 96.6322 55.3721C94.6442 56.561 92.6953 57.4185 90.7853 57.9447C87.3162 55.645 85.5816 52.5364 85.5816 48.619C85.5816 44.7016 87.131 41.593 90.2299 39.2933C93.1143 37.1494 96.8076 36.0775 101.31 36.0775C105.831 36.0775 109.573 37.2664 112.536 39.6441C115.712 42.2167 117.301 45.6566 117.301 49.9638Z" fill="#E17055"/>
<path d="M20.6142 24C20.4308 24 20.2808 23.9417 20.1642 23.825C20.0475 23.7083 19.9892 23.5583 19.9892 23.375V7.125C19.9892 6.94167 20.0475 6.79167 20.1642 6.675C20.2808 6.55833 20.4308 6.5 20.6142 6.5H27.2392C29.3225 6.5 30.9642 6.98333 32.1642 7.95C33.3642 8.9 33.9642 10.275 33.9642 12.075C33.9642 13.2917 33.6725 14.3083 33.0892 15.125C32.5058 15.9417 31.7225 16.55 30.7392 16.95L34.2642 23.2C34.3142 23.3 34.3392 23.3917 34.3392 23.475C34.3392 23.6083 34.2892 23.7333 34.1892 23.85C34.0892 23.95 33.9642 24 33.8142 24H31.0392C30.7392 24 30.5142 23.925 30.3642 23.775C30.2142 23.6083 30.1058 23.4583 30.0392 23.325L26.9892 17.6H23.9642V23.375C23.9642 23.5583 23.9058 23.7083 23.7892 23.825C23.6725 23.9417 23.5225 24 23.3392 24H20.6142ZM23.9642 14.425H27.1642C28.0808 14.425 28.7558 14.2167 29.1892 13.8C29.6392 13.3833 29.8642 12.8 29.8642 12.05C29.8642 11.3 29.6475 10.7083 29.2142 10.275C28.7808 9.84167 28.0975 9.625 27.1642 9.625H23.9642V14.425ZM47.1569 24.25C45.6403 24.25 44.3319 24 43.2319 23.5C42.1319 23 41.2736 22.25 40.6569 21.25C40.0403 20.2333 39.7069 18.9583 39.6569 17.425C39.6403 16.7083 39.6319 16 39.6319 15.3C39.6319 14.5833 39.6403 13.8583 39.6569 13.125C39.7069 11.625 40.0403 10.3667 40.6569 9.35C41.2903 8.31667 42.1569 7.54167 43.2569 7.025C44.3736 6.50833 45.6736 6.25 47.1569 6.25C48.6236 6.25 49.9069 6.50833 51.0069 7.025C52.1236 7.54167 52.9986 8.31667 53.6319 9.35C54.2653 10.3667 54.5986 11.625 54.6319 13.125C54.6653 13.8583 54.6819 14.5833 54.6819 15.3C54.6819 16 54.6653 16.7083 54.6319 17.425C54.5819 18.9583 54.2486 20.2333 53.6319 21.25C53.0153 22.25 52.1569 23 51.0569 23.5C49.9569 24 48.6569 24.25 47.1569 24.25ZM47.1569 21.025C48.1236 21.025 48.9153 20.7333 49.5319 20.15C50.1653 19.55 50.4986 18.6 50.5319 17.3C50.5653 16.5667 50.5819 15.8833 50.5819 15.25C50.5819 14.6 50.5653 13.9167 50.5319 13.2C50.5153 12.3333 50.3569 11.625 50.0569 11.075C49.7569 10.525 49.3569 10.125 48.8569 9.875C48.3736 9.60833 47.8069 9.475 47.1569 9.475C46.5069 9.475 45.9319 9.60833 45.4319 9.875C44.9319 10.125 44.5319 10.525 44.2319 11.075C43.9486 11.625 43.7903 12.3333 43.7569 13.2C43.7403 13.9167 43.7319 14.6 43.7319 15.25C43.7319 15.8833 43.7403 16.5667 43.7569 17.3C43.8069 18.6 44.1403 19.55 44.7569 20.15C45.3736 20.7333 46.1736 21.025 47.1569 21.025ZM67.9851 24.25C66.4684 24.25 65.1601 24 64.0601 23.5C62.9601 23 62.1017 22.25 61.4851 21.25C60.8684 20.2333 60.5351 18.9583 60.4851 17.425C60.4684 16.7083 60.4601 16 60.4601 15.3C60.4601 14.5833 60.4684 13.8583 60.4851 13.125C60.5351 11.625 60.8684 10.3667 61.4851 9.35C62.1184 8.31667 62.9851 7.54167 64.0851 7.025C65.2017 6.50833 66.5017 6.25 67.9851 6.25C69.4517 6.25 70.7351 6.50833 71.8351 7.025C72.9517 7.54167 73.8267 8.31667 74.4601 9.35C75.0934 10.3667 75.4267 11.625 75.4601 13.125C75.4934 13.8583 75.5101 14.5833 75.5101 15.3C75.5101 16 75.4934 16.7083 75.4601 17.425C75.4101 18.9583 75.0767 20.2333 74.4601 21.25C73.8434 22.25 72.9851 23 71.8851 23.5C70.7851 24 69.4851 24.25 67.9851 24.25ZM67.9851 21.025C68.9517 21.025 69.7434 20.7333 70.3601 20.15C70.9934 19.55 71.3267 18.6 71.3601 17.3C71.3934 16.5667 71.4101 15.8833 71.4101 15.25C71.4101 14.6 71.3934 13.9167 71.3601 13.2C71.3434 12.3333 71.1851 11.625 70.8851 11.075C70.5851 10.525 70.1851 10.125 69.6851 9.875C69.2017 9.60833 68.6351 9.475 67.9851 9.475C67.3351 9.475 66.7601 9.60833 66.2601 9.875C65.7601 10.125 65.3601 10.525 65.0601 11.075C64.7767 11.625 64.6184 12.3333 64.5851 13.2C64.5684 13.9167 64.5601 14.6 64.5601 15.25C64.5601 15.8833 64.5684 16.5667 64.5851 17.3C64.6351 18.6 64.9684 19.55 65.5851 20.15C66.2017 20.7333 67.0017 21.025 67.9851 21.025ZM82.4882 24C82.3215 24 82.1715 23.9417 82.0382 23.825C81.9215 23.7083 81.8632 23.5583 81.8632 23.375V7.125C81.8632 6.94167 81.9215 6.79167 82.0382 6.675C82.1715 6.55833 82.3215 6.5 82.4882 6.5H84.8132C85.0632 6.5 85.2465 6.56667 85.3632 6.7C85.4965 6.83333 85.5882 6.93333 85.6382 7L90.2382 15.475L94.8882 7C94.9215 6.93333 94.9965 6.83333 95.1132 6.7C95.2465 6.56667 95.4382 6.5 95.6882 6.5H98.0132C98.1965 6.5 98.3465 6.55833 98.4632 6.675C98.5799 6.79167 98.6382 6.94167 98.6382 7.125V23.375C98.6382 23.5583 98.5799 23.7083 98.4632 23.825C98.3465 23.9417 98.1965 24 98.0132 24H95.4632C95.2965 24 95.1549 23.9417 95.0382 23.825C94.9215 23.7083 94.8632 23.5583 94.8632 23.375V13.275L91.6882 19.225C91.6049 19.375 91.4965 19.5083 91.3632 19.625C91.2299 19.7417 91.0549 19.8 90.8382 19.8H89.6632C89.4465 19.8 89.2715 19.7417 89.1382 19.625C89.0049 19.5083 88.8965 19.375 88.8132 19.225L85.6382 13.275V23.375C85.6382 23.5583 85.5799 23.7083 85.4632 23.825C85.3465 23.9417 85.2049 24 85.0382 24H82.4882Z" fill="#4C5A64"/>
<path d="M11.9441 102.87C10.8561 102.87 9.94382 102.711 9.20715 102.394C8.48182 102.076 7.93215 101.663 7.55815 101.153C7.18415 100.643 6.98582 100.099 6.96315 99.5207C6.96315 99.43 6.99715 99.3507 7.06515 99.2827C7.13315 99.2034 7.21815 99.1637 7.32015 99.1637H9.13915C9.28648 99.1637 9.39982 99.1977 9.47915 99.2657C9.55848 99.3224 9.63215 99.396 9.70015 99.4867C9.77948 99.6794 9.90415 99.8664 10.0741 100.048C10.2555 100.229 10.4991 100.382 10.8051 100.507C11.1111 100.62 11.4908 100.677 11.9441 100.677C12.6808 100.677 13.2305 100.558 13.5931 100.32C13.9671 100.082 14.1541 99.7587 14.1541 99.3507C14.1541 99.056 14.0521 98.818 13.8481 98.6367C13.6555 98.4554 13.3438 98.291 12.9131 98.1437C12.4938 97.9964 11.9328 97.8377 11.2301 97.6677C10.3801 97.4864 9.65482 97.254 9.05415 96.9707C8.46482 96.676 8.01715 96.302 7.71115 95.8487C7.41648 95.384 7.26915 94.8117 7.26915 94.1317C7.26915 93.4517 7.45615 92.851 7.83015 92.3297C8.20415 91.797 8.73115 91.3834 9.41115 91.0887C10.0911 90.7827 10.9015 90.6297 11.8421 90.6297C12.6015 90.6297 13.2701 90.7317 13.8481 90.9357C14.4375 91.1397 14.9248 91.406 15.3102 91.7347C15.7068 92.0634 16.0071 92.4147 16.2111 92.7887C16.4151 93.1627 16.5228 93.5254 16.5341 93.8767C16.5341 93.9674 16.5001 94.0524 16.4321 94.1317C16.3641 94.1997 16.2792 94.2337 16.1772 94.2337H14.2731C14.1598 94.2337 14.0578 94.211 13.9671 94.1657C13.8765 94.1204 13.8028 94.041 13.7461 93.9277C13.6781 93.633 13.4741 93.378 13.1341 93.1627C12.8055 92.936 12.3748 92.8227 11.8421 92.8227C11.2868 92.8227 10.8448 92.9247 10.5161 93.1287C10.1988 93.3327 10.0401 93.6444 10.0401 94.0637C10.0401 94.3357 10.1195 94.568 10.2781 94.7607C10.4481 94.942 10.7258 95.1064 11.1111 95.2537C11.5078 95.3897 12.0291 95.5427 12.6751 95.7127C13.6725 95.9167 14.4828 96.1604 15.1061 96.4437C15.7295 96.727 16.1885 97.0954 16.4832 97.5487C16.7778 97.9907 16.9251 98.5517 16.9251 99.2317C16.9251 99.991 16.7098 100.643 16.2791 101.187C15.8598 101.731 15.2761 102.15 14.5281 102.445C13.7915 102.728 12.9301 102.87 11.9441 102.87ZM30.3468 102.7C30.2221 102.7 30.1201 102.66 30.0408 102.581C29.9614 102.501 29.9218 102.399 29.9218 102.275V93.1627H26.8278C26.7144 93.1627 26.6181 93.123 26.5388 93.0437C26.4594 92.9644 26.4198 92.868 26.4198 92.7547V91.2247C26.4198 91.1 26.4594 90.998 26.5388 90.9187C26.6181 90.8394 26.7144 90.7997 26.8278 90.7997H35.7358C35.8604 90.7997 35.9624 90.8394 36.0418 90.9187C36.1211 90.998 36.1608 91.1 36.1608 91.2247V92.7547C36.1608 92.868 36.1211 92.9644 36.0418 93.0437C35.9624 93.123 35.8604 93.1627 35.7358 93.1627H32.6588V102.275C32.6588 102.399 32.6191 102.501 32.5398 102.581C32.4604 102.66 32.3584 102.7 32.2338 102.7H30.3468ZM51.328 102.87C50.3306 102.87 49.458 102.705 48.71 102.377C47.962 102.037 47.384 101.521 46.976 100.83C46.568 100.127 46.364 99.2374 46.364 98.1607V91.2247C46.364 91.1 46.4036 90.998 46.483 90.9187C46.5623 90.8394 46.6643 90.7997 46.789 90.7997H48.642C48.7666 90.7997 48.8686 90.8394 48.948 90.9187C49.0273 90.998 49.067 91.1 49.067 91.2247V98.1437C49.067 98.9824 49.2653 99.6057 49.662 100.014C50.0586 100.422 50.614 100.626 51.328 100.626C52.0306 100.626 52.5803 100.422 52.977 100.014C53.3736 99.6057 53.572 98.9824 53.572 98.1437V91.2247C53.572 91.1 53.6116 90.998 53.691 90.9187C53.7816 90.8394 53.8836 90.7997 53.997 90.7997H55.867C55.9803 90.7997 56.0766 90.8394 56.156 90.9187C56.2353 90.998 56.275 91.1 56.275 91.2247V98.1607C56.275 99.2374 56.071 100.127 55.663 100.83C55.255 101.521 54.6826 102.037 53.946 102.377C53.2093 102.705 52.3366 102.87 51.328 102.87ZM67.7797 102.7C67.6551 102.7 67.5531 102.66 67.4737 102.581C67.3944 102.501 67.3547 102.399 67.3547 102.275V91.2247C67.3547 91.1 67.3944 90.998 67.4737 90.9187C67.5531 90.8394 67.6551 90.7997 67.7797 90.7997H72.0467C73.1801 90.7997 74.1264 90.981 74.8857 91.3437C75.6451 91.695 76.2231 92.2164 76.6197 92.9077C77.0277 93.5877 77.2431 94.432 77.2657 95.4407C77.2771 95.9394 77.2827 96.3757 77.2827 96.7497C77.2827 97.1237 77.2771 97.5544 77.2657 98.0417C77.2317 99.0957 77.0221 99.9684 76.6367 100.66C76.2514 101.351 75.6847 101.867 74.9367 102.207C74.1887 102.535 73.2537 102.7 72.1317 102.7H67.7797ZM70.0577 100.507H72.0467C72.6134 100.507 73.0781 100.422 73.4407 100.252C73.8034 100.082 74.0697 99.8154 74.2397 99.4527C74.4211 99.0787 74.5174 98.597 74.5287 98.0077C74.5401 97.679 74.5457 97.3844 74.5457 97.1237C74.5571 96.863 74.5571 96.6024 74.5457 96.3417C74.5457 96.081 74.5401 95.792 74.5287 95.4747C74.5061 94.6247 74.2851 94.0014 73.8657 93.6047C73.4577 93.1967 72.8231 92.9927 71.9617 92.9927H70.0577V100.507ZM88.5025 102.7C88.3778 102.7 88.2758 102.66 88.1965 102.581C88.1171 102.501 88.0775 102.399 88.0775 102.275V91.2247C88.0775 91.1 88.1171 90.998 88.1965 90.9187C88.2758 90.8394 88.3778 90.7997 88.5025 90.7997H90.4235C90.5481 90.7997 90.6501 90.8394 90.7295 90.9187C90.8088 90.998 90.8485 91.1 90.8485 91.2247V102.275C90.8485 102.399 90.8088 102.501 90.7295 102.581C90.6501 102.66 90.5481 102.7 90.4235 102.7H88.5025ZM106.753 102.87C105.721 102.87 104.832 102.7 104.084 102.36C103.336 102.02 102.752 101.51 102.333 100.83C101.913 100.138 101.687 99.2714 101.653 98.2287C101.641 97.7414 101.636 97.2597 101.636 96.7837C101.636 96.2964 101.641 95.8034 101.653 95.3047C101.687 94.2847 101.913 93.429 102.333 92.7377C102.763 92.035 103.353 91.508 104.101 91.1567C104.86 90.8054 105.744 90.6297 106.753 90.6297C107.75 90.6297 108.623 90.8054 109.371 91.1567C110.13 91.508 110.725 92.035 111.156 92.7377C111.586 93.429 111.813 94.2847 111.836 95.3047C111.858 95.8034 111.87 96.2964 111.87 96.7837C111.87 97.2597 111.858 97.7414 111.836 98.2287C111.802 99.2714 111.575 100.138 111.156 100.83C110.736 101.51 110.153 102.02 109.405 102.36C108.657 102.7 107.773 102.87 106.753 102.87ZM106.753 100.677C107.41 100.677 107.948 100.478 108.368 100.082C108.798 99.6737 109.025 99.0277 109.048 98.1437C109.07 97.645 109.082 97.1804 109.082 96.7497C109.082 96.3077 109.07 95.843 109.048 95.3557C109.036 94.7664 108.929 94.2847 108.725 93.9107C108.521 93.5367 108.249 93.2647 107.909 93.0947C107.58 92.9134 107.195 92.8227 106.753 92.8227C106.311 92.8227 105.92 92.9134 105.58 93.0947C105.24 93.2647 104.968 93.5367 104.764 93.9107C104.571 94.2847 104.463 94.7664 104.441 95.3557C104.429 95.843 104.424 96.3077 104.424 96.7497C104.424 97.1804 104.429 97.645 104.441 98.1437C104.475 99.0277 104.701 99.6737 105.121 100.082C105.54 100.478 106.084 100.677 106.753 100.677Z" fill="#7E8D97"/>
</svg>
