<?xml version="1.0" encoding="utf-8"?>
<!-- Generator: Adobe Illustrator 26.5.0, SVG Export Plug-In . SVG Version: 6.00 Build 0)  -->
<svg version="1.1" id="Layer_1" xmlns="http://www.w3.org/2000/svg" xmlns:xlink="http://www.w3.org/1999/xlink" x="0px" y="0px"
	 viewBox="0 0 369.5 374" style="enable-background:new 0 0 369.5 374;" xml:space="preserve">
<style type="text/css">
	.st0{fill:#E17055;}
	.st1{font-family:'Modak';}
	.st2{font-size:107.6084px;}
	.st3{fill:#FFFFFF;}
	.st4{font-family:'Knockout-HTF49-Liteweight';}
	.st5{font-size:55.0853px;}
</style>
<g>
	<text transform="matrix(1 0 0 1 95.5659 245.5161)" class="st0 st1 st2">302</text>
</g>
<text transform="matrix(1 0 0 1 134.0337 160.0298)" class="st3 st4 st5">ROOM</text>
<g>
	<g>
		<path class="st3" d="M217.8,43.9l1.7-1.1c0.9,1.6,2.4,2.9,4.1,3.3c2.2,0.6,3.8-0.2,4.3-1.8c0.5-1.7-0.6-2.6-2-3.7l-2.1-1.7
			c-1.4-1.1-2.9-2.8-2.3-5.3c0.7-2.6,3.4-3.9,6.5-3.1c2,0.5,3.6,1.9,4.4,3.4l-1.5,1.1c-0.8-1.2-1.9-2.2-3.4-2.6
			c-1.9-0.5-3.4,0.1-3.8,1.6c-0.4,1.6,0.9,2.6,2.1,3.5l2.1,1.7c1.7,1.4,3,2.9,2.3,5.4c-0.7,2.7-3.5,4.2-7,3.3
			C220.7,47.4,218.9,45.9,217.8,43.9z"/>
		<path class="st3" d="M243.3,37.8l-4.9-1.9l0.7-1.8l11.9,4.6l-0.7,1.8l-4.9-1.9l-5.7,14.5l-2.1-0.8L243.3,37.8z"/>
		<path class="st3" d="M252.7,50.9l4.9-9l2,1.1l-4.9,9.1c-2,3.7-1.1,5.7,0.9,6.8c2,1.1,4.3,0.8,6.3-2.9l4.9-9.1l1.9,1l-4.9,9
			c-2.7,4.9-6,5.3-9.1,3.7C251.5,58.8,250.1,55.8,252.7,50.9z"/>
		<path class="st3" d="M276.3,52.7l3.5,2.6c4.4,3.1,4.9,7.4,1.6,11.9c-3.2,4.5-7.5,5.5-11.8,2.4l-3.6-2.6L276.3,52.7z M270.6,67.8
			c3.3,2.4,6.5,1.5,9-2.1s2.4-6.7-1-9.1l-1.6-1.2L269,66.7L270.6,67.8z"/>
		<path class="st3" d="M292.4,65l1.7,1.5l-11.5,13.1l-1.7-1.5L292.4,65z"/>
		<path class="st3" d="M293.5,77.6c4.1-3.8,8.7-3.9,11.7-0.7c3,3.2,2.6,7.8-1.5,11.6c-4.1,3.8-8.8,4-11.8,0.8
			C288.9,86,289.4,81.4,293.5,77.6z M302.1,86.8c3.2-3,3.7-6.3,1.6-8.6c-2.1-2.3-5.5-1.9-8.7,1c-3.2,3-3.8,6.4-1.7,8.7
			C295.5,90.2,298.9,89.8,302.1,86.8z"/>
		<path class="st3" d="M306.7,103.1l2,0.3c-0.4,1.8-0.2,3.7,0.8,5.2c1.2,1.9,2.9,2.4,4.4,1.5c1.5-1,1.3-2.3,1-4.1l-0.4-2.7
			c-0.3-1.7-0.3-4,1.9-5.4c2.2-1.4,5.2-0.6,6.9,2.1c1.1,1.7,1.4,3.8,1,5.5l-1.8-0.2c0.3-1.4,0.1-2.9-0.8-4.2
			c-1.1-1.6-2.6-2.2-3.9-1.4c-1.4,0.9-1.1,2.5-0.9,4l0.4,2.7c0.4,2.2,0.2,4.1-2,5.6c-2.3,1.5-5.4,0.8-7.4-2.3
			C306.5,107.6,306.2,105.2,306.7,103.1z"/>
		<path class="st3" d="M329.6,115.7l-2.4-4.7l1.7-0.8l5.7,11.5l-1.7,0.8l-2.4-4.7l-14,6.9l-1-2L329.6,115.7z"/>
		<path class="st3" d="M327.8,131.7l9.7-3.4l0.7,2.1l-9.7,3.4c-4,1.4-4.6,3.5-3.9,5.7c0.8,2.2,2.6,3.5,6.6,2.1l9.7-3.4l0.7,2
			l-9.7,3.4c-5.3,1.9-8-0.1-9.2-3.4S322.5,133.6,327.8,131.7z"/>
		<path class="st3" d="M344,148.9l0.9,4.3c1.1,5.3-1.4,8.7-6.8,9.9c-5.4,1.1-9.2-1-10.3-6.2l-0.9-4.4L344,148.9z M329.6,156.2
			c0.8,4,3.8,5.5,8.1,4.6c4.3-0.9,6.3-3.4,5.4-7.4l-0.4-1.9l-13.5,2.8L329.6,156.2z"/>
		<path class="st3" d="M347.5,168.9l0.2,2.2l-17.4,1.9l-0.2-2.2L347.5,168.9z"/>
		<path class="st3" d="M339.9,178.8c5.6-0.1,9,2.9,9.1,7.3c0.1,4.4-3.3,7.5-8.9,7.6c-5.6,0.1-9.2-2.9-9.2-7.3
			S334.3,178.9,339.9,178.8z M340.1,191.5c4.4-0.1,7-2.2,7-5.3c-0.1-3.1-2.8-5.1-7.1-5.1c-4.3,0.1-7.1,2.2-7.1,5.3
			C332.9,189.5,335.7,191.5,340.1,191.5z"/>
		<path class="st3" d="M332.4,206.6l1.3,1.6c-1.5,1-2.6,2.6-2.9,4.4c-0.4,2.3,0.5,3.8,2.2,4.1c1.8,0.3,2.5-0.9,3.5-2.4l1.5-2.3
			c1-1.5,2.5-3.2,5-2.7c2.6,0.4,4.2,3.1,3.7,6.2c-0.3,2-1.5,3.7-3,4.7l-1.2-1.4c1.2-0.9,2-2,2.3-3.6c0.3-1.9-0.4-3.4-2-3.6
			c-1.7-0.3-2.5,1.1-3.3,2.4l-1.5,2.3c-1.2,1.8-2.6,3.2-5.2,2.8c-2.7-0.5-4.5-3.1-3.9-6.7C329.3,209.8,330.6,207.9,332.4,206.6z"/>
		<path class="st3" d="M340.9,231.4l1.5-5.1l1.8,0.5l-3.5,12.3l-1.8-0.5l1.5-5.1l-15-4.3l0.6-2.1L340.9,231.4z"/>
		<path class="st3" d="M328.7,242l9.4,4l-0.9,2l-9.5-4c-3.9-1.6-5.8-0.5-6.7,1.6c-0.9,2.1-0.4,4.3,3.5,6l9.5,4l-0.8,2l-9.4-4
			c-5.2-2.2-5.9-5.4-4.5-8.7S323.6,239.8,328.7,242z"/>
		<path class="st3" d="M329.1,265.7l-2.2,3.8c-2.7,4.6-6.9,5.5-11.7,2.7c-4.8-2.8-6.1-6.9-3.4-11.5l2.3-3.9L329.1,265.7z
			 M313.5,261.3c-2.1,3.5-0.9,6.6,2.9,8.8c3.8,2.2,6.9,1.7,9-1.8l1-1.7l-11.9-7L313.5,261.3z"/>
		<path class="st3" d="M318.3,282.8l-1.3,1.8l-14.1-10.3l1.3-1.8L318.3,282.8z"/>
		<path class="st3" d="M305.9,285c4.2,3.7,4.7,8.3,1.7,11.6c-2.9,3.3-7.5,3.3-11.7-0.4c-4.2-3.7-4.8-8.4-1.8-11.6
			C297.1,281.3,301.7,281.3,305.9,285z M297.5,294.5c3.2,2.9,6.6,3.2,8.7,0.8c2.1-2.3,1.4-5.6-1.8-8.5c-3.2-2.9-6.7-3.2-8.8-0.9
			S294.2,291.6,297.5,294.5z"/>
		<path class="st3" d="M281.7,300.5l-0.1,2c-1.8-0.2-3.7,0.2-5.1,1.3c-1.8,1.4-2.2,3.2-1.1,4.5c1.1,1.4,2.4,1.1,4.2,0.6l2.7-0.7
			c1.7-0.5,4-0.7,5.6,1.4c1.6,2.1,1,5.1-1.5,7c-1.6,1.3-3.6,1.7-5.4,1.5l0-1.8c1.5,0.1,2.9-0.2,4.1-1.2c1.5-1.2,2-2.8,1-4
			c-1-1.3-2.6-0.9-4.1-0.5l-2.6,0.7c-2.1,0.6-4.1,0.6-5.7-1.5c-1.7-2.2-1.3-5.3,1.6-7.6C277.2,300.7,279.5,300.2,281.7,300.5z"/>
		<path class="st3" d="M271.3,324.5l4.5-2.8l1,1.6l-10.9,6.7l-1-1.6l4.5-2.8l-8.2-13.3l1.9-1.2L271.3,324.5z"/>
		<path class="st3" d="M255.1,324.1l4.3,9.3l-2,0.9l-4.3-9.4c-1.8-3.8-3.9-4.3-6-3.3c-2.1,1-3.2,2.9-1.5,6.7l4.3,9.4l-1.9,0.9
			l-4.3-9.3c-2.3-5.1-0.7-8,2.6-9.5S252.8,319,255.1,324.1z"/>
		<path class="st3" d="M239.5,341.9l-4.2,1.3c-5.1,1.6-8.8-0.6-10.4-5.9c-1.6-5.3,0.2-9.3,5.2-10.8l4.3-1.3L239.5,341.9z
			 M230.9,328.2c-3.9,1.2-5.1,4.2-3.8,8.5c1.3,4.2,4,5.9,7.9,4.7l1.9-0.6l-4.1-13.2L230.9,328.2z"/>
		<path class="st3" d="M219.9,347.2l-2.2,0.4l-3.5-17.1l2.2-0.4L219.9,347.2z"/>
		<path class="st3" d="M209.2,340.5c0.6,5.6-2.2,9.3-6.5,9.7c-4.4,0.4-7.8-2.6-8.3-8.2c-0.6-5.6,2.1-9.4,6.5-9.8
			C205.3,331.8,208.7,335,209.2,340.5z M196.7,341.8c0.4,4.3,2.8,6.8,5.9,6.5s4.9-3.2,4.4-7.5c-0.4-4.3-2.8-6.9-5.9-6.6
			C198,334.5,196.2,337.5,196.7,341.8z"/>
		<path class="st3" d="M180.9,335.6l-1.4,1.4c-1.2-1.4-2.8-2.4-4.6-2.5c-2.3-0.2-3.7,0.9-3.9,2.6c-0.1,1.8,1.1,2.4,2.7,3.3l2.4,1.3
			c1.6,0.8,3.4,2.2,3.2,4.7c-0.2,2.7-2.7,4.5-5.8,4.2c-2.1-0.2-3.8-1.2-5-2.5l1.3-1.3c1,1.1,2.2,1.8,3.8,1.9c2,0.1,3.3-0.7,3.4-2.3
			c0.1-1.7-1.3-2.4-2.7-3.1L172,342c-2-1-3.4-2.3-3.2-4.9c0.2-2.8,2.6-4.8,6.3-4.5C177.5,332.8,179.5,333.9,180.9,335.6z"/>
		<path class="st3" d="M157.1,346.3l5.2,1l-0.3,1.8l-12.6-2.4l0.3-1.8l5.2,1l2.9-15.3l2.2,0.4L157.1,346.3z"/>
		<path class="st3" d="M145.4,335.2l-3.1,9.8l-2.1-0.7l3.2-9.8c1.3-4,0-5.8-2.2-6.5c-2.2-0.7-4.3,0-5.6,4l-3.2,9.8l-2-0.7l3.1-9.8
			c1.7-5.3,4.9-6.3,8.3-5.3C145.1,327.2,147.1,329.8,145.4,335.2z"/>
		<path class="st3" d="M121.9,337.8l-4-1.9c-4.9-2.3-6.1-6.3-3.8-11.4c2.4-5,6.4-6.7,11.1-4.5l4,1.9L121.9,337.8z M124.8,321.8
			c-3.7-1.7-6.6-0.3-8.5,3.7s-1.1,7.1,2.6,8.8l1.8,0.8l5.9-12.5L124.8,321.8z"/>
		<path class="st3" d="M103.8,328.5l-1.9-1.1l8.9-15l1.9,1.1L103.8,328.5z"/>
		<path class="st3" d="M100.5,316.4c-3.3,4.5-7.8,5.4-11.4,2.8c-3.5-2.6-4-7.2-0.7-11.7c3.3-4.5,7.9-5.5,11.4-2.9
			C103.4,307.2,103.8,311.9,100.5,316.4z M90.3,308.9c-2.6,3.5-2.5,6.9,0,8.7c2.5,1.9,5.8,0.9,8.3-2.6s2.6-7,0.1-8.8
			S92.9,305.4,90.3,308.9z"/>
		<path class="st3" d="M82.9,293.7l-2,0.1c0.1-1.8-0.5-3.7-1.7-5c-1.6-1.7-3.3-1.9-4.6-0.7c-1.3,1.2-0.8,2.5-0.2,4.2l0.9,2.6
			c0.6,1.7,1,3.9-0.8,5.7c-1.9,1.8-5,1.5-7.1-0.8c-1.4-1.5-2-3.5-2-5.2l1.8-0.1c0,1.5,0.4,2.8,1.5,4c1.3,1.4,3,1.7,4.1,0.6
			c1.2-1.2,0.6-2.7,0.1-4.1l-0.9-2.5c-0.8-2.1-1-4,0.9-5.8c2-1.9,5.2-1.8,7.7,0.9C82.2,289.2,83,291.5,82.9,293.7z"/>
		<path class="st3" d="M58,285.5l3.2,4.2l-1.5,1.1L52,280.6l1.5-1.1l3.2,4.2l12.5-9.4l1.3,1.8L58,285.5z"/>
		<path class="st3" d="M56.9,269.4l-8.9,5.1l-1.1-1.9l8.9-5.1c3.6-2.1,3.9-4.3,2.8-6.3c-1.2-2-3.2-2.9-6.8-0.8l-8.9,5.1l-1.1-1.8
			l8.9-5.1c4.9-2.8,7.9-1.4,9.7,1.7C62.1,263.3,61.7,266.6,56.9,269.4z"/>
		<path class="st3" d="M37.8,255.4l-1.7-4c-2-5-0.3-8.8,4.9-10.9c5.1-2.1,9.2-0.7,11.2,4.2l1.7,4.1L37.8,255.4z M50.6,245.6
			c-1.6-3.8-4.7-4.7-8.8-3s-5.6,4.5-4,8.3l0.8,1.8l12.8-5.3L50.6,245.6z"/>
		<path class="st3" d="M30.6,236.5l-0.6-2.1l16.7-5.1l0.6,2.1L30.6,236.5z"/>
		<path class="st3" d="M36.3,225.2c-5.5,1.1-9.4-1.3-10.3-5.6c-0.8-4.3,1.9-8,7.4-9.1c5.5-1.1,9.5,1.3,10.4,5.6
			C44.7,220.4,41.8,224.1,36.3,225.2z M33.9,212.8c-4.3,0.8-6.5,3.4-5.9,6.4s3.6,4.6,7.9,3.7c4.3-0.8,6.6-3.4,6-6.5
			C41.3,213.5,38.2,212,33.9,212.8z"/>
		<path class="st3" d="M38.6,196.6l-1.5-1.3c1.3-1.3,2.1-3,2.1-4.9c0-2.3-1.2-3.6-2.9-3.6c-1.8,0-2.3,1.3-3,3l-1.1,2.5
			c-0.7,1.6-1.9,3.6-4.4,3.6c-2.7,0-4.7-2.2-4.7-5.4c0-2.1,0.8-3.9,2.1-5.2l1.4,1.2c-1,1.1-1.6,2.4-1.6,4c0,2,1,3.2,2.6,3.2
			c1.7,0,2.3-1.6,2.8-2.9l1-2.5c0.8-2,2-3.6,4.6-3.7c2.8,0,5,2.2,5.1,5.9C41.2,192.9,40.2,195,38.6,196.6z"/>
		<path class="st3" d="M25.8,173.8l-0.5,5.3l-1.9-0.2l1.2-12.7l1.9,0.2l-0.5,5.3l15.5,1.5l-0.2,2.2L25.8,173.8z"/>
		<path class="st3" d="M35.8,161.1l-10-2.2l0.5-2.2l10.1,2.2c4.1,0.9,5.8-0.5,6.3-2.8c0.5-2.3-0.4-4.3-4.5-5.2l-10.1-2.2l0.5-2.1
			l10,2.2c5.5,1.2,6.8,4.3,6,7.8C43.8,160.1,41.3,162.3,35.8,161.1z"/>
		<path class="st3" d="M31.1,137.9l1.5-4.1c1.8-5,5.8-6.7,11-4.8c5.2,1.9,7.3,5.7,5.5,10.7l-1.5,4.2L31.1,137.9z M47.2,139.3
			c1.4-3.8-0.3-6.6-4.5-8.1c-4.1-1.5-7.1-0.4-8.5,3.4l-0.7,1.9l13,4.7L47.2,139.3z"/>
		<path class="st3" d="M38.7,119.1l1-2l15.8,7.5l-1,2L38.7,119.1z"/>
		<path class="st3" d="M50.4,114.6c-4.8-2.9-6.1-7.3-3.8-11.1c2.3-3.8,6.8-4.6,11.6-1.7c4.8,2.9,6.2,7.4,3.9,11.1
			C59.8,116.7,55.2,117.5,50.4,114.6z M57,103.8c-3.7-2.3-7.1-1.9-8.7,0.8s-0.4,5.8,3.3,8.1c3.7,2.3,7.2,2,8.8-0.7
			S60.7,106.1,57,103.8z"/>
		<path class="st3" d="M71.4,95l-0.3-2c1.8-0.1,3.6-0.8,4.8-2.2c1.5-1.7,1.6-3.5,0.3-4.6c-1.3-1.2-2.6-0.6-4.2,0.2l-2.5,1.1
			c-1.6,0.8-3.8,1.4-5.7-0.3c-2-1.8-1.9-4.8,0.2-7.2c1.4-1.6,3.3-2.3,5-2.4l0.3,1.8c-1.5,0.1-2.8,0.7-3.9,1.9
			c-1.3,1.5-1.4,3.1-0.2,4.1c1.3,1.1,2.7,0.4,4.1-0.3l2.5-1.2c2-0.9,3.9-1.3,5.9,0.4c2.1,1.8,2.2,5-0.2,7.7
			C75.8,94,73.6,94.9,71.4,95z"/>
		<path class="st3" d="M77.3,69.6l-3.9,3.5l-1.3-1.4l9.5-8.6l1.3,1.4L79,68.1l10.5,11.6l-1.6,1.5L77.3,69.6z"/>
		<path class="st3" d="M93.3,67l-5.9-8.4l1.8-1.3l5.9,8.4c2.4,3.4,4.6,3.5,6.5,2.2c1.9-1.3,2.6-3.5,0.2-6.9l-5.9-8.4l1.7-1.2
			l5.9,8.4c3.2,4.6,2.1,7.7-0.8,9.8C99.8,71.6,96.5,71.6,93.3,67z"/>
		<path class="st3" d="M105.4,46.7l3.9-2c4.8-2.5,8.8-1.1,11.3,3.8c2.6,4.9,1.5,9.1-3.1,11.6l-4,2.1L105.4,46.7z M116.4,58.6
			c3.6-1.9,4.2-5.1,2.2-9c-2.1-3.9-5-5.1-8.6-3.2l-1.8,0.9l6.4,12.2L116.4,58.6z"/>
		<path class="st3" d="M123.6,37.8l2.1-0.8l6.6,16.2l-2.1,0.8L123.6,37.8z"/>
		<path class="st3" d="M135.4,42.4c-1.6-5.4,0.4-9.5,4.6-10.7c4.2-1.2,8.1,1.2,9.7,6.5c1.6,5.4-0.4,9.6-4.6,10.9
			C140.9,50.3,136.9,47.8,135.4,42.4z M147.5,38.9c-1.2-4.2-4-6.2-6.9-5.3s-4.2,4-3,8.2s4,6.3,7,5.4C147.5,46.3,148.7,43,147.5,38.9
			z"/>
	</g>
</g>
</svg>
